# xmcd
#
# Track frame offsets:
# 150
# 12043
# 29005
# 37136
# 57639
# 68127
# 79291
# 89273
# 112374
# 125421
# 136309
# 155660
# 176913
#
# Disc length: 2555 seconds
#
# Revision: 1
# Processed by: cddbd v1.5.2PL0 Copyright (c) Steve Scherf et al.
# Submitted via: CedeCatalogueitor 2.6.0.6 http://personales.ya.com/cdcatalogueitor
#
DISCID=c109f90d
DTITLE=Joe Crepúsculo - Escuela De Zebras
DYEAR=1900
DGENRE=
TTITLE0=Escuela De Zebras
TTITLE1=Los Cazadores
TTITLE2=Gabriela
TTITLE3=Los Cuatro Elementos
TTITLE4=Canción Estival
TTITLE5=Los Cazadores Parte 2
TTITLE6=Fiesta Mayor
TTITLE7=Los Viejos
TTITLE8=La Lucha
TTITLE9=Ya Llega La Navidad
TTITLE10=Despues De La Muerte
TTITLE11=Suena Brillante
TTITLE12=La Amistad
EXTD=
EXTT0=
EXTT1=
EXTT2=
EXTT3=
EXTT4=
EXTT5=
EXTT6=
EXTT7=
EXTT8=
EXTT9=
EXTT10=
EXTT11=
EXTT12=
PLAYORDER=
